<svg width="320" height="320" viewBox="0 0 320 320" fill="none" xmlns="http://www.w3.org/2000/svg">
  <defs>
    <linearGradient id="soil" x1="0" y1="0" x2="0" y2="1">
      <stop offset="0%" stop-color="#7f5539" />
      <stop offset="100%" stop-color="#5e3d2a" />
    </linearGradient>
    <linearGradient id="stem" x1="0" y1="0" x2="0" y2="1">
      <stop offset="0%" stop-color="#6fbf73" />
      <stop offset="100%" stop-color="#3f8f54" />
    </linearGradient>
    <radialGradient id="petal" cx="50%" cy="50%" r="50%">
      <stop offset="0%" stop-color="#ffe9ec" />
      <stop offset="100%" stop-color="#ff8fa3" />
    </radialGradient>
  </defs>

  <rect x="10" y="10" width="300" height="300" rx="24" fill="#f6f3eb" />
  <ellipse cx="160" cy="250" rx="95" ry="28" fill="url(#soil)" />

  <ellipse cx="160" cy="240" rx="18" ry="10" fill="#9b6a4a" opacity="1" />

  <path d="M160 238 C157 228 154 220 148 212" stroke="url(#stem)" stroke-width="4" stroke-linecap="round" opacity="1" />
  <path d="M160 238 C162 216 163 190 160 160" stroke="url(#stem)" stroke-width="6" stroke-linecap="round" opacity="1" />

  <path d="M160 196 C142 190 132 180 126 168" stroke="#4da364" stroke-width="4" stroke-linecap="round" opacity="1" />
  <ellipse cx="122" cy="162" rx="20" ry="10" transform="rotate(-20 122 162)" fill="#74c476" opacity="1" />

  <path d="M160 180 C178 174 192 164 198 152" stroke="#4da364" stroke-width="4" stroke-linecap="round" opacity="1" />
  <ellipse cx="202" cy="148" rx="20" ry="10" transform="rotate(24 202 148)" fill="#74c476" opacity="1" />

  <circle cx="160" cy="140" r="8" fill="#8d6e63" opacity="1" />
  <circle cx="134" cy="154" r="7" fill="#8d6e63" opacity="1" />

  <g opacity="1">
    <circle cx="160" cy="134" r="9" fill="#ffd166" />
    <circle cx="151" cy="134" r="7" fill="url(#petal)" />
    <circle cx="169" cy="134" r="7" fill="url(#petal)" />
    <circle cx="160" cy="125" r="7" fill="url(#petal)" />
    <circle cx="160" cy="143" r="7" fill="url(#petal)" />
  </g>

  <g opacity="1">
    <circle cx="132" cy="149" r="8" fill="#ffd166" />
    <circle cx="124" cy="149" r="6" fill="url(#petal)" />
    <circle cx="140" cy="149" r="6" fill="url(#petal)" />
    <circle cx="132" cy="141" r="6" fill="url(#petal)" />
    <circle cx="132" cy="157" r="6" fill="url(#petal)" />
  </g>

  <g opacity="1">
    <circle cx="200" cy="146" r="8" fill="#ffd166" />
    <circle cx="192" cy="146" r="6" fill="url(#petal)" />
    <circle cx="208" cy="146" r="6" fill="url(#petal)" />
    <circle cx="200" cy="138" r="6" fill="url(#petal)" />
    <circle cx="200" cy="154" r="6" fill="url(#petal)" />
  </g>
</svg>
