<svg xmlns="http://www.w3.org/2000/svg" viewBox="0 0 64 64" role="img" aria-label="Quiz Me favicon">
  <defs>
    <linearGradient id="qGrad" x1="0%" y1="0%" x2="100%" y2="100%">
      <stop offset="0%" stop-color="#f0c49a"/>
      <stop offset="100%" stop-color="#bb5a2e"/>
    </linearGradient>
  </defs>
  <rect width="64" height="64" rx="14" fill="#f7efe5"/>
  <path
    d="M33 13c-10.9 0-19.5 8.5-19.5 19.5S22.1 52 33 52c4.4 0 8.5-1.3 11.9-3.8l3.8 4a2.8 2.8 0 0 0 4.1-3.9l-3.7-3.9A19.2 19.2 0 0 0 52.5 32.5C52.5 21.5 43.9 13 33 13Zm0 7.2a12.3 12.3 0 1 1 0 24.6 12.3 12.3 0 0 1 0-24.6Z"
    fill="url(#qGrad)"
  />
</svg>
